<?xml version="1.0" encoding="UTF-8"?>
<svg version="1.1" xmlns="http://www.w3.org/2000/svg" width="250" height="250">
<path d="M0 0 C16.5 0 33 0 50 0 C50 16.5 50 33 50 50 C66.5 50 83 50 100 50 C100 66.5 100 83 100 100 C116.5 100 133 100 150 100 C150 116.5 150 133 150 150 C133.5 150 117 150 100 150 C100 174.75 100 199.5 100 225 C83.5 225 67 225 50 225 C50 208.5 50 192 50 175 C33.5 175 17 175 0 175 C0 191.5 0 208 0 225 C-16.5 225 -33 225 -50 225 C-50 200.25 -50 175.5 -50 150 C-66.5 150 -83 150 -100 150 C-100 133.5 -100 117 -100 100 C-83.5 100 -67 100 -50 100 C-50 83.5 -50 67 -50 50 C-33.5 50 -17 50 0 50 C0 33.5 0 17 0 0 Z " fill="#FFFFFF" transform="translate(100,0)"/>
</svg>
