<?xml version="1.0" encoding="UTF-8"?>
<svg version="1.1" xmlns="http://www.w3.org/2000/svg" width="225" height="225">
<path d="M0 0 C33 0 66 0 100 0 C100 33 100 66 100 100 C67 100 34 100 0 100 C0 67 0 34 0 0 Z " fill="#B5D6D9" transform="translate(125,125)"/>
<path d="M0 0 C33 0 66 0 100 0 C100 33 100 66 100 100 C67 100 34 100 0 100 C0 67 0 34 0 0 Z " fill="#B5D6D9" transform="translate(0,125)"/>
<path d="M0 0 C33 0 66 0 100 0 C100 33 100 66 100 100 C67 100 34 100 0 100 C0 67 0 34 0 0 Z " fill="#B5D6D9" transform="translate(125,0)"/>
<path d="M0 0 C33 0 66 0 100 0 C100 33 100 66 100 100 C67 100 34 100 0 100 C0 67 0 34 0 0 Z " fill="#B5D6D9" transform="translate(0,0)"/>
<path d="M0 0 C33 0 66 0 100 0 C100 33 100 66 100 100 C91.75 100 83.5 100 75 100 C75 83.5 75 67 75 50 C66.75 50 58.5 50 50 50 C50 41.75 50 33.5 50 25 C33.5 25 17 25 0 25 C0 16.75 0 8.5 0 0 Z " fill="#D7E8EA" transform="translate(125,0)"/>
<path d="M0 0 C33 0 66 0 100 0 C100 8.25 100 16.5 100 25 C75.25 25 50.5 25 25 25 C25 49.75 25 74.5 25 100 C16.75 100 8.5 100 0 100 C0 67 0 34 0 0 Z " fill="#D7E8EA" transform="translate(0,0)"/>
<path d="M0 0 C33 0 66 0 100 0 C100 8.25 100 16.5 100 25 C67 25 34 25 0 25 C0 16.75 0 8.5 0 0 Z " fill="#67959A" transform="translate(125,200)"/>
<path d="M0 0 C33 0 66 0 100 0 C100 8.25 100 16.5 100 25 C67 25 34 25 0 25 C0 16.75 0 8.5 0 0 Z " fill="#67959A" transform="translate(0,200)"/>
<path d="M0 0 C8.25 0 16.5 0 25 0 C25 16.5 25 33 25 50 C33.25 50 41.5 50 50 50 C50 58.25 50 66.5 50 75 C33.5 75 17 75 0 75 C0 50.25 0 25.5 0 0 Z " fill="#D7E8EA" transform="translate(0,125)"/>
<path d="M0 0 C8.25 0 16.5 0 25 0 C25 24.75 25 49.5 25 75 C16.75 75 8.5 75 0 75 C0 50.25 0 25.5 0 0 Z " fill="#D7E8EA" transform="translate(200,125)"/>
<path d="M0 0 C8.25 0 16.5 0 25 0 C25 24.75 25 49.5 25 75 C16.75 75 8.5 75 0 75 C0 50.25 0 25.5 0 0 Z " fill="#D7E8EA" transform="translate(200,25)"/>
<path d="M0 0 C8.25 0 16.5 0 25 0 C25 24.75 25 49.5 25 75 C16.75 75 8.5 75 0 75 C0 50.25 0 25.5 0 0 Z " fill="#D7E8EA" transform="translate(0,25)"/>
<path d="M0 0 C8.25 0 16.5 0 25 0 C25 8.25 25 16.5 25 25 C16.75 25 8.5 25 0 25 C0 16.75 0 8.5 0 0 Z " fill="#8BB4B8" transform="translate(200,200)"/>
<path d="M0 0 C8.25 0 16.5 0 25 0 C25 8.25 25 16.5 25 25 C16.75 25 8.5 25 0 25 C0 16.75 0 8.5 0 0 Z " fill="#8BB4B8" transform="translate(0,200)"/>
<path d="M0 0 C8.25 0 16.5 0 25 0 C25 8.25 25 16.5 25 25 C16.75 25 8.5 25 0 25 C0 16.75 0 8.5 0 0 Z " fill="#FFFFFF" transform="translate(25,175)"/>
<path d="M0 0 C8.25 0 16.5 0 25 0 C25 8.25 25 16.5 25 25 C16.75 25 8.5 25 0 25 C0 16.75 0 8.5 0 0 Z " fill="#D7E8EA" transform="translate(50,150)"/>
<path d="M0 0 C8.25 0 16.5 0 25 0 C25 8.25 25 16.5 25 25 C16.75 25 8.5 25 0 25 C0 16.75 0 8.5 0 0 Z " fill="#D7E8EA" transform="translate(150,50)"/>
<path d="M0 0 C8.25 0 16.5 0 25 0 C25 8.25 25 16.5 25 25 C16.75 25 8.5 25 0 25 C0 16.75 0 8.5 0 0 Z " fill="#FFFFFF" transform="translate(175,25)"/>
<path d="M0 0 C8.25 0 16.5 0 25 0 C25 8.25 25 16.5 25 25 C16.75 25 8.5 25 0 25 C0 16.75 0 8.5 0 0 Z " fill="#FFFFFF" transform="translate(200,0)"/>
<path d="M0 0 C8.25 0 16.5 0 25 0 C25 8.25 25 16.5 25 25 C16.75 25 8.5 25 0 25 C0 16.75 0 8.5 0 0 Z " fill="#FFFFFF" transform="translate(0,0)"/>
</svg>
